<?xml version="1.0" encoding="utf-8"?>
<!-- Generator: Adobe Illustrator 28.0.0, SVG Export Plug-In . SVG Version: 6.00 Build 0)  -->
<svg version="1.1" id="Layer_1" xmlns="http://www.w3.org/2000/svg" xmlns:xlink="http://www.w3.org/1999/xlink" x="0px" y="0px"
	 viewBox="0 0 612 792" style="enable-background:new 0 0 612 792;" xml:space="preserve">
<style type="text/css">
	.st0{fill:#808285;}
	.st1{fill:#39B54A;}
	.st2{fill:#E6E6E6;}
</style>
<path d="M99.9,278.6v-21.1h6.4l3.8,14.4l3.8-14.4h6.4v21.1h-4V262l-4.2,16.6H108l-4.2-16.6v16.6H99.9z"/>
<path d="M123.6,268.2c0-2.1,0.3-4,1-5.4c0.5-1.1,1.1-2,2-2.9c0.8-0.9,1.7-1.5,2.7-1.9c1.3-0.6,2.8-0.8,4.5-0.8c3.1,0,5.6,1,7.5,2.9
	c1.9,1.9,2.8,4.6,2.8,8c0,3.4-0.9,6.1-2.8,8c-1.9,1.9-4.3,2.9-7.4,2.9c-3.1,0-5.6-1-7.5-2.9C124.6,274.2,123.6,271.6,123.6,268.2z
	 M128,268.1c0,2.4,0.6,4.2,1.7,5.4c1.1,1.2,2.5,1.8,4.2,1.8s3.1-0.6,4.2-1.8c1.1-1.2,1.6-3.1,1.6-5.5c0-2.4-0.5-4.2-1.6-5.4
	c-1.1-1.2-2.5-1.8-4.2-1.8s-3.2,0.6-4.2,1.8S128,265.6,128,268.1z"/>
<path d="M147.5,278.6v-21.1h4.1l8.6,14.1v-14.1h4v21.1h-4.3l-8.5-13.8v13.8H147.5z"/>
<path d="M187.7,278.6h-4.6l-1.8-4.8h-8.4l-1.7,4.8h-4.5l8.2-21.1h4.5L187.7,278.6z M179.9,270.3l-2.9-7.8l-2.8,7.8H179.9z"/>
<path class="st0" d="M103,295.1v-1.9h5v4.5c-0.5,0.5-1.2,0.9-2.1,1.2c-0.9,0.4-1.9,0.5-2.8,0.5c-1.2,0-2.3-0.2-3.1-0.7
	c-0.9-0.5-1.6-1.2-2-2.1c-0.4-0.9-0.7-1.9-0.7-3c0-1.2,0.3-2.2,0.8-3.1c0.5-0.9,1.2-1.6,2.2-2.1c0.7-0.4,1.7-0.6,2.8-0.6
	c1.4,0,2.5,0.3,3.3,0.9c0.8,0.6,1.3,1.4,1.5,2.4l-2.3,0.4c-0.2-0.6-0.5-1-0.9-1.3c-0.4-0.3-1-0.5-1.7-0.5c-1,0-1.8,0.3-2.4,0.9
	c-0.6,0.6-0.9,1.6-0.9,2.8c0,1.3,0.3,2.3,0.9,3s1.4,1,2.4,1c0.5,0,1-0.1,1.5-0.3c0.5-0.2,0.9-0.4,1.3-0.7v-1.4H103z"/>
<path class="st0" d="M125,299.2h-2.5l-1-2.6h-4.6l-0.9,2.6h-2.5l4.5-11.3h2.5L125,299.2z M120.7,294.8l-1.6-4.2l-1.6,4.2H120.7z"/>
<path class="st0" d="M130.6,299.2V288h4.9c1.2,0,2.1,0.1,2.7,0.3c0.6,0.2,1,0.6,1.3,1.1c0.3,0.5,0.5,1.1,0.5,1.8
	c0,0.8-0.3,1.5-0.8,2.1s-1.3,0.9-2.3,1c0.5,0.3,0.9,0.6,1.2,0.9c0.3,0.3,0.8,1,1.3,1.8l1.4,2.2h-2.8l-1.7-2.4
	c-0.6-0.9-1-1.4-1.2-1.7c-0.2-0.2-0.5-0.4-0.7-0.5c-0.2-0.1-0.6-0.1-1.2-0.1h-0.5v4.7H130.6z M132.9,292.7h1.7c1.1,0,1.8,0,2.1-0.1
	s0.5-0.3,0.7-0.5c0.2-0.2,0.2-0.5,0.2-0.8c0-0.4-0.1-0.7-0.3-0.9c-0.2-0.2-0.5-0.4-0.9-0.4c-0.2,0-0.8,0-1.7,0h-1.8V292.7z"/>
<path class="st0" d="M146.6,288h4.2c1,0,1.7,0.1,2.2,0.2c0.7,0.2,1.3,0.5,1.7,1c0.5,0.5,0.8,1.1,1.1,1.8s0.4,1.6,0.4,2.7
	c0,0.9-0.1,1.7-0.4,2.4c-0.3,0.8-0.7,1.5-1.2,2c-0.4,0.4-0.9,0.7-1.6,0.9c-0.5,0.2-1.2,0.2-2.1,0.2h-4.4V288z M149,289.9v7.5h1.7
	c0.6,0,1.1,0,1.4-0.1c0.4-0.1,0.7-0.2,0.9-0.5c0.2-0.2,0.5-0.6,0.6-1.1c0.2-0.5,0.2-1.2,0.2-2.1s-0.1-1.5-0.2-2
	c-0.2-0.5-0.4-0.8-0.7-1.1c-0.3-0.3-0.6-0.4-1.1-0.5c-0.3-0.1-1-0.1-1.9-0.1H149z"/>
<path class="st0" d="M162.7,299.2V288h8.5v1.9H165v2.5h5.8v1.9H165v3.1h6.4v1.9H162.7z"/>
<path class="st0" d="M177.8,299.2V288h2.3l4.7,7.5V288h2.2v11.3h-2.3l-4.6-7.3v7.3H177.8z"/>
<g>
	<path class="st1" d="M61.2,255.8c0,0-6.5,12.4-2.9,24.3s10.7,20.2,15.9,18.6c5.2-1.6,6.5-12.4,2.9-24.3
		C73.5,262.6,61.2,255.8,61.2,255.8z M74.4,298.3l-0.4,0.1l-0.4,0.1l-9.5-31.6l0.4-0.1l0,0l0,0l0.4-0.1L74.4,298.3z"/>
	<rect x="69.3" y="266.1" transform="matrix(0.9573 -0.289 0.289 0.9573 -78.6947 32.1345)" class="st2" width="0.4" height="33"/>
	<rect x="68.9" y="266.2" transform="matrix(0.9573 -0.289 0.289 0.9573 -78.7424 32.0329)" class="st2" width="0.4" height="33"/>
</g>
<g>
	<path class="st1" d="M90.6,284.7c0,0-5.4,0.8-8.4,4.6c-3,3.8-4,8-2.3,9.3c1.7,1.3,5.4-0.8,8.4-4.6
		C91.2,290.2,90.6,284.7,90.6,284.7z M80.1,298.6l-0.1-0.1l-0.1-0.1l7.9-10.2l0.1,0.1l0,0l0,0l0.1,0.1L80.1,298.6z"/>
	
		<rect x="77.5" y="293.4" transform="matrix(0.6105 -0.792 0.792 0.6105 -199.7067 180.77)" class="st2" width="12.9" height="0.1"/>
	
		<rect x="77.4" y="293.3" transform="matrix(0.6105 -0.792 0.792 0.6105 -199.6805 180.6406)" class="st2" width="12.9" height="0.1"/>
</g>
</svg>
